HIERARCHY
ROOT ui
{
	 OFFSET 0 0 0
	 CHANNELS 3 XPosition YPosition Z Position
	 EndSite
	 {
	 OFFSET 0 -1 0
	 }
}
ROOT li
{
	 OFFSET 0 0 0
	 CHANNELS 3 XPosition YPosition Z Position
	 EndSite
	 {
	 OFFSET 0 -1 0
	 }
}
ROOT ul
{
	 OFFSET 0 0 0
	 CHANNELS 3 XPosition YPosition Z Position
	 EndSite
	 {
	 OFFSET 0 -1 0
	 }
}
ROOT ll
{
	 OFFSET 0 0 0
	 CHANNELS 3 XPosition YPosition Z Position
	 EndSite
	 {
	 OFFSET 0 -1 0
	 }
}
ROOT tt
{
	 OFFSET 0 0 0
	 CHANNELS 3 XPosition YPosition Z Position
	 EndSite
	 {
	 OFFSET 0 -1 0
	 }
}
ROOT tb
{
	 OFFSET 0 0 0
	 CHANNELS 3 XPosition YPosition Z Position
	 EndSite
	 {
	 OFFSET 0 -1 0
	 }
}
ROOT td
{
	 OFFSET 0 0 0
	 CHANNELS 3 XPosition YPosition Z Position
	 EndSite
	 {
	 OFFSET 0 -1 0
	 }
}
ROOT v
{
	 OFFSET 0 0 0
	 CHANNELS 3 XPosition YPosition Z Position
	 EndSite
	 {
	 OFFSET 0 -1 0
	 }
}
ROOT bn
{
	 OFFSET 0 0 0
	 CHANNELS 3 XPosition YPosition Z Position
	 EndSite
	 {
	 OFFSET 0 -1 0
	 }
}
MOTION
Frames: 32
Frame Time: 0.002
-6.366009712219238E-4	-5.905060172080994E-4	0		0.4793271484375	-2.362082275390625	0		-1.0668670654296875	0.17154222106933595	0		-0.7359307861328125	-2.602478271484375	0		1.40518798828125	-0.6705623779296875	0		3.0243134765625	-0.1469846649169922	0		4.4766728515625	0.09738499450683594	0		5.58852783203125	0.13883392333984376	0		-0.22627037048339843	5.91109423828125	0		
0.0020303928852081297	0.0020197229385375977	0		0.428077392578125	-2.353557373046875	0		-1.1422220458984376	0.17348202514648436	0		-0.7342910766601562	-2.600847900390625	0		1.4048017578125	-0.6709064331054687	0		3.02392919921875	-0.14733518981933594	0		4.4762900390625	0.09702864074707031	0		5.58825341796875	0.13821022033691407	0		-0.227613037109375	5.9117734375	0		
0.0016484229564666748	0.0016799060106277466	0		0.4556608276367187	-2.35537548828125	0		-1.1226568603515625	0.1698093719482422	0		-0.80250830078125	-2.590029296875	0		1.4133636474609375	-0.6744067993164062	0		3.02878369140625	-0.13377940368652344	0		4.48489013671875	0.09551025390625	0		5.59091796875	0.14955804443359375	0		-0.34616482543945315	5.90044189453125	0		
0.005340947151184082	0.0052736330032348636	0		0.4313558349609375	-2.350309326171875	0		-1.13385888671875	0.1796660919189453	0		-0.7299821166992188	-2.595601318359375	0		1.41015380859375	-0.6647060546875	0		3.0272548828125	-0.1431226043701172	0		4.4796357421875	0.10222129058837891	0		5.5906494140625	0.14889878845214843	0		-0.19895355224609376	5.93060302734375	0		
0.005824729919433593	-0.004074666976928711	0		0.45488107299804686	-2.3560537109375	0		-1.1392705078125	0.17643023681640624	0		-0.7673484497070312	-2.59429736328125	0		1.403666015625	-0.671949462890625	0		3.037008056640625	-0.13665617370605468	0		4.48415380859375	0.0947604522705078	0		5.59038916015625	0.14822915649414062	0		-0.2134430694580078	5.91951220703125	0		
5.631870031356811E-4	6.848750114440918E-4	0		0.4524726867675781	-2.358349365234375	0		-1.068711181640625	0.16991079711914062	0		-0.7426443481445313	-2.59003955078125	0		1.4033109130859376	-0.6722904663085938	0		3.0306259765625	-0.1389136962890625	0		4.48892626953125	0.10129762268066406	0		5.585982421875	0.16503094482421876	0		-0.22887287902832032	5.91044677734375	0		
2.3442099988460542E-4	3.7045300006866456E-4	0		0.45211334228515626	-2.358669677734375	0		-1.144009765625	0.17188774108886717	0		-0.7680882568359375	-2.594917724609375	0		1.402973388671875	-0.6726231079101562	0		3.01724609375	-0.1420455322265625	0		4.48347998046875	0.09401116943359375	0		5.58990380859375	0.14688902282714844	0		-0.22912498474121093	5.91013525390625	0		
0.004840506076812744	-0.00501535701751709	0		0.48237554931640625	-2.38250244140625	0		-1.04838037109375	0.1669662628173828	0		-0.718559326171875	-2.6030595703125	0		1.4146712646484374	-0.6721488647460937	0		3.021816162109375	-0.1494735107421875	0		4.48317333984375	0.09364678192138672	0		5.589681640625	0.14623345947265626	0		-0.2132156982421875	5.91756298828125	0		
0.009810210227966309	0.009611818313598633	0		0.45960400390625	-2.3504072265625	0		-1.1195848388671874	0.17190760803222657	0		-0.761621337890625	-2.5876025390625	0		1.4174266357421874	-0.6695068359375	0		3.04290087890625	-0.12816532897949218	0		4.490076171875	0.10417369842529296	0		5.59535205078125	0.16957810974121093	0		-0.21341299438476563	5.91728125	0		
-0.005535157203674317	0.00460205888748169	0		0.48014849853515623	-2.3600380859375	0		-1.065818115234375	0.17273582458496095	0		-0.7300479736328125	-2.59540283203125	0		1.4020877685546875	-0.6735385131835937	0		3.020468994140625	-0.13810179138183593	0		4.49184912109375	0.10580314636230469	0		5.58928759765625	0.14498883056640624	0		-0.22971791076660156	5.90929248046875	0		
0.008120789527893066	-0.0018823050260543823	0		0.42493075561523436	-2.35635205078125	0		-1.066054931640625	0.17250679016113282	0		-0.7432243041992187	-2.589415771484375	0		1.4018375244140624	-0.6738068237304687	0		3.016142333984375	-0.1433267364501953	0		4.47751123046875	0.09972589111328126	0		5.5891142578125	0.14441143798828124	0		-0.22986338806152343	5.9090498046875	0		
-0.005992165088653564	0.0041317157745361325	0		0.45061993408203127	-2.36002783203125	0		-1.058510498046875	0.15816462707519532	0		-0.7326222534179687	-2.5978154296875	0		1.4016090087890625	-0.6740540161132812	0		3.01592236328125	-0.14359994506835938	0		4.477294921875	0.09942909240722657	0		5.58895703125	0.1438689727783203	0		-0.22998567199707032	5.9088291015625	0		
0.002792496919631958	0.0027750890254974363	0		0.42647406005859373	-2.354827392578125	0		-1.12555810546875	0.16712538146972655	0		-0.7627025756835938	-2.58849365234375	0		1.40446923828125	-0.670331298828125	0		3.020962158203125	-0.12993902587890624	0		4.48506396484375	0.09701740264892578	0		5.58881494140625	0.14336431884765624	0		-0.21493533325195313	5.9173720703125	0		
0.002615020990371704	0.0025939340591430663	0		0.45425506591796877	-2.355495361328125	0		-1.0615709228515624	0.17586346435546876	0		-0.7269779052734375	-2.592279541015625	0		1.4073321533203125	-0.6675866088867187	0		3.015543212890625	-0.144080322265625	0		4.48002587890625	0.1048496322631836	0		5.58868603515625	0.14289950561523437	0		-0.21600163269042968	5.91821142578125	0		
-0.0016124720573425294	-0.0014972120523452758	0		0.42606344604492186	-2.355182373046875	0		-1.13585400390625	0.16899041748046875	0		-0.72717724609375	-2.5924287109375	0		1.4010430908203124	-0.6746646118164062	0		3.02958544921875	-0.13252903747558595	0		4.4798681640625	0.10462036895751953	0		5.5885703125	0.14247532653808595	0		-0.21508735656738281	5.917037109375	0		
-0.001755545973777771	-0.001637935996055603	0		0.4497962951660156	-2.36074072265625	0		-1.1459759521484374	0.17003799438476563	0		-0.729392578125	-2.59452392578125	0		1.40089013671875	-0.6748259887695313	0		3.050317138671875	-0.1400740509033203	0		4.4766240234375	0.09846601867675782	0		5.5884658203125	0.14209126281738282	0		-0.2161259002685547	5.91791650390625	0		
-0.0018837039470672608	-0.0017602050304412842	0		0.42369058227539064	-2.3574228515625	0		-1.1461016845703125	0.16993171691894532	0		-0.7295569458007812	-2.59463623046875	0		1.4007525634765625	-0.6749678344726563	0		3.00924462890625	-0.13653469848632813	0		4.47649755859375	0.09828118133544922	0		5.58837255859375	0.14174639892578125	0		-0.23034117126464843	5.90803955078125	0		
0.0020700581073760985	0.0020657401084899904	0		0.4535751647949219	-2.35604931640625	0		-1.1262684326171875	0.16649850463867188	0		-0.7846456909179688	-2.59078564453125	0		1.4126446533203125	-0.6742974853515625	0		3.014989990234375	-0.14478089904785157	0		4.4843486328125	0.09598044586181641	0		5.58828955078125	0.14144007873535155	0		-0.21424282836914063	5.91566162109375	0		
0.006881426811218261	-0.0031073179244995117	0		0.45751284790039065	-2.352212158203125	0		-1.046311279296875	0.16904689025878905	0		-0.7227022705078125	-2.586931640625	0		1.4155858154296874	-0.6714544677734375	0		3.048174072265625	-0.12847593688964845	0		4.4883505859375	0.1017682876586914	0		5.5911533203125	0.1531610565185547	0		-0.21328987121582033	5.91455908203125	0		
0.0018773399591445923	0.0019067260026931763	0		0.45127584838867185	-2.35918408203125	0		-1.06736279296875	0.1713487854003906	0		-0.7618336791992187	-2.587322998046875	0		1.400420654296875	-0.6752826538085938	0		3.008932373046875	-0.1369083251953125	0		4.490294921875	0.10361190795898438	0		5.58814892578125	0.14094161987304688	0		-0.2304324493408203	5.9077841796875	0		
-0.00718644380569458	0.003006355047225952	0		0.45116937255859374	-2.359244140625	0		-1.07151171875	0.1673739013671875	0		-0.72599951171875	-2.590990478515625	0		1.4003314208984374	-0.675352294921875	0		3.0088486328125	-0.13699436950683594	0		4.48611083984375	0.09758056640625	0		5.585150390625	0.12875955200195313	0		-0.22947186279296874	5.90671435546875	0		
-0.0023497600555419922	-0.0021190969944000246	0		0.4490372314453125	-2.36125341796875	0		-1.1465582275390624	0.16963677978515626	0		-0.7861423950195312	-2.59298876953125	0		1.4002489013671875	-0.6754051513671875	0		3.00877099609375	-0.13706190490722656	0		4.47603662109375	0.09767196655273437	0		5.588033203125	0.14059205627441407	0		-0.21630653381347656	5.91745068359375	0		
0.0016462700366973878	0.0017856240272521972	0		0.45258322143554686	-2.3823486328125	0		-1.0557635498046876	0.16105136108398438	0		-0.7142978515625	-2.59725	0		1.4060667724609375	-0.6815446166992187	0		3.029918701171875	-0.12447576141357422	0		4.4839296875	0.09547293090820312	0		5.58798046875	0.14047166442871092	0		-0.2153491973876953	5.9164091796875	0		
-0.0033536720275878906	0.005858813762664795	0		0.4529462890625	-2.356367919921875	0		-1.13166552734375	0.171356201171875	0		-0.7561198120117187	-2.58153515625	0		1.4121123046875	-0.6746710815429687	0		3.024607177734375	-0.13842012023925782	0		4.4782412109375	0.11753076171875	0		5.5908681640625	0.1523751220703125	0		-0.21537942504882812	5.9163984375	0		
0.0015083669424057007	0.001772191047668457	0		0.45081402587890623	-2.35933642578125	0		-1.0717935791015625	0.16732594299316406	0		-0.7253272094726563	-2.589066162109375	0		1.405920654296875	-0.6815748901367188	0		3.040535888671875	-0.13871337890625	0		4.48993017578125	0.10330089569091797	0		5.58788037109375	0.14033392333984376	0		-0.21541607666015625	5.9163984375	0		
-0.002627650022506714	-0.00214982008934021	0		0.448702880859375	-2.361294921875	0		-1.0718604736328126	0.16733851623535156	0		-0.7264393920898438	-2.591037353515625	0		1.399954833984375	-0.6754694213867187	0		3.0404677734375	-0.13871710205078125	0		4.47576123046875	0.09753406524658204	0		5.58783203125	0.1403105010986328	0		-0.2164427490234375	5.9174248046875	0		
-0.0026952130794525146	-0.002134963035583496	0		0.44862918090820314	-2.36128125	0		-1.071927490234375	0.16735617065429687	0		-0.7265137329101562	-2.5910205078125	0		1.40271240234375	-0.685508544921875	0		3.031435791015625	-0.1365550537109375	0		4.48181396484375	0.10443255615234374	0		5.5848447265625	0.1283225860595703	0		-0.23066546630859375	5.90768359375	0		
0.0021498100757598878	-0.007201675891876221	0		0.4246482238769531	-2.35584912109375	0		-1.127021484375	0.16632666015625	0		-0.78152490234375	-2.58705126953125	0		1.4057122802734374	-0.6815438232421875	0		3.010129150390625	-0.15017523193359375	0		4.48359033203125	0.09541255187988282	0		5.590673828125	0.1523204803466797	0		-0.21557261657714843	5.9164423828125	0		
0.009201288223266602	-3.023940026760101E-4	0		0.456644287109375	-2.352381103515625	0		-1.04703271484375	0.16896551513671876	0		-0.7195159912109375	-2.5831015625	0		1.411763916015625	-0.674627197265625	0		3.043349365234375	-0.13372633361816405	0		4.49762353515625	0.10119133758544922	0		5.590625	0.15235775756835937	0		-0.20047085571289064	5.926203125	0		
-0.007813889980316163	0.003013418912887573	0		0.45045794677734374	-2.359253173828125	0		-1.07213330078125	0.16741880798339845	0		-0.7216162719726562	-2.585045166015625	0		1.4055753173828125	-0.6814979858398438	0		3.03122998046875	-0.13649188232421874	0		4.488814453125	0.11637324523925781	0		5.58763671875	0.14042112731933593	0		-0.22988943481445312	5.90672900390625	0		
0.006008540153503418	-0.0032038850784301756	0		0.47531927490234377	-2.36365966796875	0		-1.07220556640625	0.16743965148925782	0		-0.7237158203125	-2.586988525390625	0		1.3965411376953125	-0.6793157348632812	0		3.0221943359375	-0.13430552673339843	0		4.4964130859375	0.09727288818359375	0		5.5875859375	0.14048609924316408	0		-0.21580569458007812	5.9165087890625	0		
-0.0030484650135040284	-0.00202460503578186	0		0.4223464050292969	-2.3577197265625	0		-1.060456298828125	0.15725413513183595	0		-0.7237821044921875	-2.586967041015625	0		1.4023634033203125	-0.6853893432617187	0		3.01687841796875	-0.14818217468261718	0		4.478443359375	0.10362300872802735	0		5.58753173828125	0.14056210327148438	0		-0.23105581665039063	5.90779248046875	0		
